<svg id="Layer_1" data-name="Layer 1" xmlns="http://www.w3.org/2000/svg" viewBox="0 0 678.75 226.77"><defs><style>.cls-1{fill:#fff;}</style></defs><title>socket-logo</title><path class="cls-1" d="M202,117.42a12,12,0,0,0-16.91,0L117.42,185a12,12,0,0,0,0,16.91l33.81,33.81a12,12,0,1,0,16.91-16.91L142.78,193.5l50.72-50.72L252.66,202A12,12,0,1,0,269.57,185Z" transform="translate(-113.92 -113.92)"/><path class="cls-1" d="M185,269.57a12,12,0,1,0,0-16.91A12,12,0,0,0,185,269.57Z" transform="translate(-113.92 -113.92)"/><path class="cls-1" d="M235.76,218.85a12,12,0,0,0-16.91,16.91l25.36,25.36L193.5,311.83l-59.17-59.17a12,12,0,0,0-16.91,16.91L185,337.19a12,12,0,0,0,16.91,0l67.62-67.62a12,12,0,0,0,0-16.91Z" transform="translate(-113.92 -113.92)"/><path class="cls-1" d="M202,202A12,12,0,1,0,185,202,12,12,0,0,0,202,202Z" transform="translate(-113.92 -113.92)"/><path class="cls-1" d="M368.14,220.5l-10.89-2.73c-2.52-.7-7.22-2-8-4.24a5.12,5.12,0,0,1,.47-4.79c1.1-1.77,4.81-3.11,8.62-3.11a17.29,17.29,0,0,1,11.18,4.5c3.76,3.25,7.77,3.59,10.94,1,2.75-2.06,4.46-6.39,1.73-11.07-4.55-7.19-13.08-11.16-24-11.16-14.05,0-25.83,8.79-26.8,20-1,12.89,5.72,21.14,20.7,25.22l9.56,2.28c5.91,1.39,8.43,3.28,8.43,6.31,0,4.27-4.25,7-10.82,7s-11.41-2.74-14-7.65a7.4,7.4,0,0,0-9.75-3.79c-4.13,1.52-6.09,5.85-4.64,10.38,3.74,10.2,14.67,17.05,27.17,17.05,18,0,29.7-9,29.7-22.87C387.77,236.32,385.22,224.72,368.14,220.5Z" transform="translate(-113.92 -113.92)"/><path class="cls-1" d="M434.39,188.88c-22.22,0-38.35,16.07-38.35,38.2s16.48,38.65,38.35,38.65c22,0,38.65-16.62,38.65-38.65S456.78,188.88,434.39,188.88Zm0,58.74c-11.55,0-19.93-8.64-19.93-20.54,0-11.64,8.38-20.08,19.93-20.08,11.72,0,20.23,8.44,20.23,20.08C454.62,239,446.11,247.62,434.39,247.62Z" transform="translate(-113.92 -113.92)"/><path class="cls-1" d="M522.05,207a24.32,24.32,0,0,1,12,3.28c4,2.36,10.21,2.05,12.78-2.17,2.69-4.49,1.74-9.72-2.24-12.43a39,39,0,0,0-22.54-6.8c-22.39,0-39.26,16.56-39.26,38.5s16.87,38.35,39.26,38.35A39,39,0,0,0,544.57,259c4-2.73,4.95-8,2.25-12.45-2.56-4.21-8.79-4.52-12.77-2.17a24.2,24.2,0,0,1-12,3.29c-10.11,0-20.85-7.09-20.85-20.24C501.2,215.76,510.16,207,522.05,207Z" transform="translate(-113.92 -113.92)"/><path class="cls-1" d="M674.24,188.88c-22,0-37.89,16.07-37.89,38.2,0,22.39,15.93,38.65,37.89,38.65,11.3,0,21.86-4.26,29-11.69a8.66,8.66,0,0,0,2.34-6.56,7.54,7.54,0,0,0-2.79-5.46c-3.85-3.12-8.86-1.86-11.87.62-5.23,4.31-9.13,6.49-15.91,6.49-10.29,0-18-5.76-20-14.82h47.57a8.61,8.61,0,0,0,8.6-8.64C710.61,204,695.41,188.88,674.24,188.88Zm0,16.6c9.6,0,16.53,5.52,18.44,14.52H655.05C657,211.12,664.37,205.48,674.24,205.48Z" transform="translate(-113.92 -113.92)"/><rect class="cls-1" x="446.46" y="37.17" width="18.57" height="113.92" rx="9.28"/><path class="cls-1" d="M621.72,265a9,9,0,0,1-6.41-2.66l-28.45-28.45a9.05,9.05,0,0,1,0-12.8l28.45-28.45a9.06,9.06,0,0,1,12.81,12.81l-22,22,22,22a9.07,9.07,0,0,1-6.4,15.47Z" transform="translate(-113.92 -113.92)"/><path class="cls-1" d="M739.66,161.93h-.52a9,9,0,0,0-9,9v19h-4.81c-5.13,0-10.32,4.16-10.32,9.29s5.19,9.28,10.32,9.28h4.81V256a9,9,0,0,0,9,9h.52a9,9,0,0,0,9-9V171A9,9,0,0,0,739.66,161.93Z" transform="translate(-113.92 -113.92)"/><circle class="cls-1" cx="649.21" cy="85.37" r="9.28"/><path class="cls-1" d="M785.62,151.09a7.09,7.09,0,1,1-7,7.08A7,7,0,0,1,785.62,151.09Zm0,12.69a5.6,5.6,0,1,0-5.57-5.61A5.56,5.56,0,0,0,785.62,163.78Zm.44-9h-2.2a.7.7,0,0,0-.68.73V161a.85.85,0,0,0,.84.79.81.81,0,0,0,.83-.79v-1.65h.48l1.28,2.1a.85.85,0,0,0,1.06.22.8.8,0,0,0,.33-1.09l-1-1.45a2.14,2.14,0,0,0,1.47-2.1A2.26,2.26,0,0,0,786.06,154.76Zm0,1.5a.8.8,0,0,1,.71.84.79.79,0,0,1-.73.83h-1.19v-1.67Z" transform="translate(-113.92 -113.92)"/></svg>