<svg xmlns="http://www.w3.org/2000/svg" viewBox="0 0 20 20"><g fill="none" fill-rule="evenodd"><path fill="none" d="M0 0h20v20H0z"/><path fill="currentColor" d="M11.5909903,5.72702923 L14.7729708,8.90900974 C14.8706018,9.00664082 14.8706018,9.16493206 14.7729708,9.26256313 L7.78113423,16.2543997 C7.61571614,16.4198178 7.39753897,16.5220065 7.16456319,16.5431861 L3.93480693,16.8368003 C3.79730277,16.8493007 3.67570007,16.7479651 3.66319969,16.6104609 L3.66319969,16.5651931 L3.9568139,13.3354368 C3.97799351,13.102461 4.08018224,12.8842839 4.24560032,12.7188658 L11.2374369,5.72702923 C11.3350679,5.62939815 11.4933592,5.62939815 11.5909903,5.72702923 Z M15.1265242,3.60570888 L16.8942911,5.37347584 C17.3824465,5.8616312 17.3824465,6.65308742 16.8942911,7.14124279 L16.1871843,7.84834957 C16.0895533,7.94598064 15.931262,7.94598064 15.8336309,7.84834957 L12.6516504,4.66636906 C12.5540194,4.56873798 12.5540194,4.41044674 12.6516504,4.31281566 L13.3587572,3.60570888 C13.8469126,3.11755352 14.6383688,3.11755352 15.1265242,3.60570888 Z"/></g></svg>
