<svg xmlns="http://www.w3.org/2000/svg" viewBox="0 0 20 20"><g fill="none" fill-rule="evenodd"><path fill="none" d="M0 0h20v20H0z"/><path fill="currentColor" d="M11.028 0c1.8.004 2.18.018 3.095.06 1.064.049 1.791.218 2.427.465a4.902 4.902 0 011.772 1.153 4.902 4.902 0 011.153 1.772c.247.636.416 1.363.465 2.427.042.914.056 1.295.06 3.095v2.056c-.004 1.8-.018 2.18-.06 3.095-.049 1.064-.218 1.791-.465 2.427a4.902 4.902 0 01-1.153 1.772 4.902 4.902 0 01-1.772 1.153c-.636.247-1.363.416-2.427.465-.914.042-1.295.056-3.095.06H8.972c-1.8-.004-2.18-.018-3.095-.06-1.064-.049-1.791-.218-2.427-.465a4.902 4.902 0 01-1.772-1.153A4.902 4.902 0 01.525 16.55c-.247-.636-.416-1.363-.465-2.427-.042-.914-.056-1.295-.06-3.095V8.972c.004-1.8.018-2.18.06-3.095.05-1.064.218-1.791.465-2.427a4.902 4.902 0 011.153-1.772A4.902 4.902 0 013.45.525C4.086.278 4.813.109 5.877.06 6.743.02 7.13.006 8.7.001h2.328zm-.472 1.802H9.444c-2.165.002-2.509.014-3.485.058-.975.045-1.504.208-1.857.344-.466.182-.8.399-1.15.748-.35.35-.566.684-.748 1.15-.137.353-.3.882-.344 1.857-.044.977-.056 1.32-.058 3.485v1.112c.002 2.165.014 2.509.058 3.485.045.975.207 1.504.344 1.857.182.466.399.8.748 1.15.35.35.684.566 1.15.748.353.137.882.3 1.857.344 1.054.048 1.37.058 4.041.058 2.67 0 2.987-.01 4.04-.058.976-.045 1.505-.207 1.858-.344.466-.182.8-.399 1.15-.748.35-.35.566-.684.748-1.15.136-.353.3-.882.344-1.857.04-.898.054-1.26.057-3V8.959c-.003-1.738-.016-2.1-.057-2.999-.045-.975-.208-1.504-.344-1.857a3.098 3.098 0 00-.748-1.15 3.099 3.099 0 00-1.15-.748c-.353-.136-.882-.3-1.857-.344-.977-.044-1.32-.056-3.485-.058zm-.536 3.079a5.139 5.139 0 110 10.278 5.139 5.139 0 010-10.278zm0 1.803a3.336 3.336 0 100 6.672 3.336 3.336 0 000-6.672zm5.297-3.232a1.19 1.19 0 110 2.381 1.19 1.19 0 010-2.38z"/></g></svg>