<svg xmlns="http://www.w3.org/2000/svg" viewBox="0 0 20 20"><g fill="none" fill-rule="evenodd"><path fill="none" d="M0 0h20v20H0z"/><path fill="currentColor" d="M4.867 6.977V19H1V6.977h3.867zm9.675-.282C17.08 6.695 19 8.37 19 11.975V19h-3.867v-6.574c0-1.575-.563-2.651-1.962-2.651-1.069 0-1.701.724-1.983 1.427-.105.253-.133.598-.133.95V19H7.188V6.977h3.867V8.65c.562-.802 1.441-1.955 3.487-1.955zM3.088 1c1.266 0 2.04.893 2.067 2.074 0 1.153-.801 2.074-2.088 2.074H3.04C1.802 5.148 1 4.228 1 3.074 1 1.9 1.823 1 3.088 1z"/></g></svg>