<svg id="Layer_1" data-name="Layer 1" xmlns="http://www.w3.org/2000/svg" viewBox="0 0 657.76 219.78"><defs><style>.cls-1{fill-rule:evenodd;}</style></defs><title>logo</title><path class="cls-1" d="M117.84,101.47l.23.23,32.77,32.76a11.6,11.6,0,0,1,.22,16.16l-.22.23L85.31,216.38a11.59,11.59,0,0,1-16.16.23l-.23-.23L3.39,150.85a11.58,11.58,0,0,1,16.15-16.61l.23.22,57.34,57.35,49.15-49.15-24.57-24.58a11.58,11.58,0,0,1,16.15-16.61Zm-32.54,33a11.59,11.59,0,1,1-16.38,0A11.58,11.58,0,0,1,85.3,134.46ZM543,72.65c20.51,0,35.25,14.66,35.83,35.65a8.36,8.36,0,0,1-8.08,8.38H524.39c1.94,8.78,9.36,14.36,19.33,14.36,6.58,0,10.35-2.12,15.42-6.29,2.92-2.41,7.77-3.62,11.51-.6a7.32,7.32,0,0,1,2.7,5.29,8.4,8.4,0,0,1-2.27,6.36c-6.91,7.2-17.14,11.33-28.09,11.33-21.28,0-36.72-15.76-36.72-37.46,0-21.45,15.44-37,36.72-37Zm-306.24,0c10.59,0,18.85,3.84,23.26,10.81,2.65,4.54,1,8.73-1.67,10.73-3.08,2.53-7,2.2-10.61-1a16.76,16.76,0,0,0-10.84-4.36c-3.69,0-7.28,1.3-8.35,3a5,5,0,0,0-.45,4.65c.69,2.08,5,3.35,7.5,4l.22.06,10.55,2.64c16.55,4.09,19,15.34,19,21.67,0,13.47-11.3,22.17-28.78,22.17-12.12,0-22.7-6.64-26.34-16.53-1.4-4.38.5-8.59,4.51-10a7.15,7.15,0,0,1,9.44,3.66c2.52,4.76,7.34,7.42,13.57,7.42s10.49-2.67,10.49-6.81c0-2.88-2.34-4.69-7.81-6l-.36-.09-9.27-2.2c-14.51-4-21.06-12-20.06-24.45.94-10.88,12.36-19.4,26-19.4Zm73.8,0c21.71,0,37.46,15.57,37.46,37s-16.1,37.46-37.46,37.46c-21.18,0-37.16-16.11-37.16-37.46s15.63-37,37.16-37Zm84.95,0a37.86,37.86,0,0,1,21.85,6.58c3.86,2.63,4.77,7.7,2.17,12-2.49,4.09-8.53,4.39-12.39,2.11a23.48,23.48,0,0,0-11.63-3.18c-11.51,0-20.2,8.49-20.2,19.75,0,12.74,10.41,19.61,20.2,19.61a23.45,23.45,0,0,0,11.64-3.19c3.85-2.28,9.89-2,12.37,2.11,2.61,4.35,1.7,9.42-2.18,12.06a37.75,37.75,0,0,1-21.83,6.58c-21.69,0-38-16-38-37.17s16.35-37.31,38-37.31ZM441.65,36a9,9,0,0,1,9,9h0v92.42a9,9,0,0,1-8.73,9h-.27a9,9,0,0,1-9-9h0V45a9,9,0,0,1,9-9ZM498.3,76.31a8.79,8.79,0,0,1,0,12.41l-21.36,21.36,21.36,21.37a8.78,8.78,0,0,1-12.41,12.41l-27.57-27.57a8.77,8.77,0,0,1,0-12.41h0l27.57-27.57a8.77,8.77,0,0,1,12.41,0ZM606.39,46.53A8.74,8.74,0,0,1,615.13,55v82.67a8.76,8.76,0,0,1-8.49,8.74h-.76a8.74,8.74,0,0,1-8.74-8.48V91.73h-4.66c-5,0-10-4-10-9s4.86-8.85,9.74-9h4.92V55.28a8.74,8.74,0,0,1,8.49-8.74h.76ZM310.55,90.21c-11.19,0-19.31,8.18-19.31,19.46,0,11.53,8.12,19.9,19.31,19.9,11.36,0,19.61-8.37,19.61-19.9C330.16,98.39,321.91,90.21,310.55,90.21ZM85.07,3.17l.24.22,65.52,65.54a11.58,11.58,0,0,1-16.15,16.61l-.23-.23L77.11,28,28,77.12,52.54,101.7a11.58,11.58,0,0,1-16.15,16.61l-.23-.23L3.39,85.31a11.59,11.59,0,0,1-.22-16.15l.22-.23L68.92,3.39a11.58,11.58,0,0,1,16.15-.22ZM543,88.74c-9.43,0-16.5,5.31-18.52,13.71l-.08.35h36.47C559,94.08,552.3,88.73,543,88.73Zm86.14-15a9,9,0,1,1-8.91,8.9,9,9,0,0,1,8.91-8.9ZM85.31,68.93a11.59,11.59,0,1,1-16.39,0A11.59,11.59,0,0,1,85.31,68.93ZM650.92,36a6.87,6.87,0,1,1-6.82,6.86A6.81,6.81,0,0,1,650.92,36Zm0,1.44a5.43,5.43,0,1,0,5.4,5.42A5.37,5.37,0,0,0,650.92,37.47Zm.43,2.11a2.19,2.19,0,0,1,2.31,2.23,2.08,2.08,0,0,1-1.43,2l1,1.41a.77.77,0,0,1-.32,1,.82.82,0,0,1-1-.21l-1.23-2h-.47v1.6a.78.78,0,0,1-.8.76.83.83,0,0,1-.82-.76V40.29a.68.68,0,0,1,.66-.71Zm0,1.45h-1.17v1.62h1.15a.76.76,0,0,0,.7-.8C652,41.5,651.8,41,651.35,41Z" transform="translate(0 0)"/></svg>