<svg xmlns="http://www.w3.org/2000/svg" viewBox="0 0 54 75"><path fill="currentColor" fill-rule="evenodd" d="M35.427 34.67a4.098 4.098 0 0 1 5.707 0L52.55 45.84a3.89 3.89 0 0 1 0 5.586L29.72 73.767a4.098 4.098 0 0 1-5.707 0L1.182 51.426a3.89 3.89 0 0 1 0-5.586 4.098 4.098 0 0 1 5.707 0l19.976 19.55 17.123-16.757-8.561-8.378a3.89 3.89 0 0 1 0-5.586zm-5.708 11.17a3.89 3.89 0 0 1 0 5.586 4.098 4.098 0 0 1-5.707 0 3.89 3.89 0 0 1 0-5.586 4.098 4.098 0 0 1 5.707 0zm-.16-44.832l.16.149 22.83 22.341a3.89 3.89 0 0 1 0 5.586c-1.523 1.49-3.962 1.54-5.547.149l-.16-.15L26.865 9.536 9.743 26.29l8.561 8.378a3.89 3.89 0 0 1 0 5.586c-1.523 1.49-3.962 1.54-5.546.149l-.161-.15-11.415-11.17a3.889 3.889 0 0 1-.152-5.428l.152-.158 22.83-22.341c1.523-1.491 3.962-1.54 5.547-.15zm.16 22.49a3.89 3.89 0 0 1 0 5.586 4.098 4.098 0 0 1-5.707 0 3.89 3.89 0 0 1 0-5.585 4.098 4.098 0 0 1 5.707 0z" /></svg>
