<svg xmlns="http://www.w3.org/2000/svg" viewBox="0 0 60 60">
  <path fill="currentColor" fill-rule="evenodd" d="M25.384 12.699l4.923 8.13c.808 1.334.316 2.995-1.098 3.71a2.987 2.987 0 0 1-.53.208l-3.72 1.06c-3.23.919-4.975 4.118-3.899 7.145.128.36.294.71.496 1.042l3.543 4.806c1.569 2.59 5.677 5.618 8.422 4.229a5.492 5.492 0 0 0 1.31-.921l2.572-2.45c1.122-1.068 2.989-1.065 4.168.007.208.189.386.404.529.639l4.651 7.682c.746 1.231.385 2.741-.788 3.53l-.352.202c-12.033 5.844-22.148 1.997-30.346-11.542-8.238-13.604-6.161-23.158 6.23-28.66 1.401-.622 3.11-.102 3.889 1.183z"/>
</svg>
