<svg xmlns="http://www.w3.org/2000/svg" viewBox="0 0 60 60">
  <path fill="currentColor" fill-rule="evenodd" d="M27.952 33.874c-2.056 0-3.724-1.63-3.724-3.64 0-2.012 1.668-3.642 3.724-3.642 2.058 0 3.724 1.63 3.724 3.642 0 2.01-1.666 3.64-3.724 3.64m-2.87 11.263c-.112.394-.252.787-.505 1.11-.324.42-.813.689-1.31.89-1.53.622-3.221.704-4.885.604-.341-.02-.682-.036-1.019-.07-3.958-.39-7.837-1.458-11.444-3.094l17.337-1.24c.565-.043.99-.523.951-1.075-.043-.556-.585-.966-1.099-.93L4.453 42.669c.466-3.004 2.206-5.772 4.632-7.674.265-.209.56-.37.84-.556 2.159-1.443 4.706-2.317 7.286-2.674 2.389-.33 4.497 1.17 5.887 2.981 2.243 2.921 2.997 6.879 1.985 10.392M7.44 30.318c.38.424.923.705 1.541.705 1.13 0 2.046-.893 2.046-2 0-1.104-.916-2-2.046-2-.138 0-.257.05-.388.077.485-.564 1.117-.91 1.902-.887.152.004.302.002.466.036 1.882.387 1.95 1.955 1.553 3.792-.396 1.835-1.107 3.245-2.985 2.86-.5-.105-.897-.28-1.212-.509-.636-.47-.901-1.184-.877-2.074m35.168-10.59c1.413-.753 2.95-1.283 4.55-1.482 1.123-.142 1.918-1.148 1.774-2.249-.145-1.098-1.142-1.855-2.3-1.736a17.476 17.476 0 0 0-5.125 1.48 54.053 54.053 0 0 1 1.756-3.626 1.986 1.986 0 0 0-.871-2.709c-1-.518-2.245-.134-2.769.85a57.9 57.9 0 0 0-1.884 3.878 23.027 23.027 0 0 1-.665-3.443c-.126-1.1-1.126-1.887-2.27-1.773-1.128.125-1.937 1.117-1.814 2.22a27.082 27.082 0 0 0 1.243 5.504 30.937 30.937 0 0 0-4.825-.388c-9.624 0-15.232 3.72-18.369 9-1.162-.196-2.255.156-3.087 1.023-.838.873-1.224 2.038-1.403 2.863-.438 2.03.137 3.531 1.563 4.298-.074.408-.144.817-.203 1.231-2.484 2.154-4.13 5.075-4.526 8.133-.039.301-.117.926.237 1.49.293.476.753.7 1.035.837 1.278.618 2.596 1.132 3.927 1.598 2.87 6.949 11.103 9.037 20.826 9.037 12.105 0 21.918-3.219 21.918-15.05 0-8.033-1.931-16.419-8.718-20.986M27.37 28.24c-1.125 0-2.04.891-2.04 1.992 0 1.1.915 1.991 2.04 1.991 1.126 0 2.038-.891 2.038-1.991s-.912-1.992-2.038-1.992"/>
</svg>
