<svg xmlns="http://www.w3.org/2000/svg" viewBox="0 0 60 60">
  <path fill="currentColor" fill-rule="evenodd" d="M53.628 18.5a1 1 0 0 1 1 1v14.24a1 1 0 0 1-1 1l-10.672-.001 2.81-4.06 4.884.001a.25.25 0 0 0 .243-.193l.007-.057v-7.62a.25.25 0 0 0-.25-.25l-10.95-.001 5.639 4.628a.5.5 0 0 1 .094.67L25.808 56.216a.5.5 0 0 1-.728.102L7.989 42.293a.5.5 0 0 1-.094-.67l13.191-19.064-14.68.001a.25.25 0 0 0-.243.193l-.006.057v7.62c0 .138.112.25.25.25l6.408-.001-2.664 4.06-6.723.001a1 1 0 0 1-1-1V19.5a1 1 0 0 1 1-1h50.2zm-23.285 4.059h-3.73l-.29 11.901-12.526 4.694c-.982.337-1.528 1.477-1.219 2.546.31 1.07 1.356 1.664 2.338 1.327l13.796-5.129c.76-.26 1.284-1.017 1.304-1.885l.327-13.454z"/>
</svg>
