<svg xmlns="http://www.w3.org/2000/svg" viewBox="0 0 60 60">
  <path fill="currentColor" fill-rule="evenodd" d="M37.227 6.95c2.85-.387 5.49 1.548 5.894 4.322l5.277 36.206c.404 2.774-1.58 5.335-4.43 5.722L22.35 56.13c-2.85.386-5.49-1.55-5.894-4.324L11.18 15.601c-.404-2.774 1.58-5.336 4.43-5.722l21.617-2.93zm-.497 4.228l-19.433 2.634c-1.718.232-2.952 1.672-2.912 3.305l.033.38 4.411 30.266c.241 1.657 1.734 2.847 3.427 2.808l.394-.03 19.433-2.634c1.718-.233 2.952-1.672 2.912-3.305l-.033-.38-4.411-30.267c-.242-1.657-1.734-2.847-3.428-2.808l-.393.031zm-5.658 39.608l2.986-.405c.779-.105 1.5.418 1.609 1.17.11.75-.434 1.445-1.213 1.55l-2.986.406c-.779.105-1.5-.418-1.609-1.17-.11-.75.434-1.445 1.213-1.551zm-6.976-30.96l10.721-1.453c1.85-.25 3.561.993 3.821 2.777l1.103 7.563a.362.362 0 0 1-.317.406.375.375 0 0 1-.396-.219c-.66-1.543-2.321-2.46-4.036-2.227l-9.707 1.315c-1.85.25-3.56-.992-3.82-2.777l-.249-1.7c-.26-1.784 1.03-3.434 2.88-3.685zm9.8 12.544l-10.721 1.453c-1.85.25-3.14 1.9-2.88 3.685l1.103 7.563a.37.37 0 0 0 .42.305.365.365 0 0 0 .318-.315c.194-1.66 1.528-2.981 3.243-3.214l9.707-1.315c1.85-.251 3.14-1.9 2.88-3.685l-.249-1.7c-.26-1.785-1.97-3.028-3.82-2.777z"/>
</svg>
