<svg xmlns="http://www.w3.org/2000/svg" viewBox="0 0 20 20"><g fill="none" fill-rule="evenodd"><path fill="none" d="M0 0h20v20H0z"/><path fill="currentColor" d="M17.762 4.53a4.018 4.018 0 001.713-2.234 7.637 7.637 0 01-2.476.98A3.824 3.824 0 0014.154 2c-2.152 0-3.897 1.808-3.897 4.039 0 .316.033.625.1.92-3.239-.17-6.11-1.775-8.034-4.22a4.141 4.141 0 00-.528 2.03c0 1.401.688 2.638 1.734 3.364a3.808 3.808 0 01-1.766-.505v.05c0 1.957 1.343 3.59 3.128 3.96a3.689 3.689 0 01-1.028.142c-.251 0-.497-.025-.733-.072.495 1.604 1.935 2.773 3.641 2.804A7.65 7.65 0 011 16.186 10.762 10.762 0 006.975 18c7.171 0 11.09-6.155 11.09-11.492 0-.176-.002-.35-.01-.522A8.06 8.06 0 0020 3.894c-.7.321-1.45.538-2.238.636z"/></g></svg>